<?xml version="1.0" encoding="UTF-8" standalone="no"?>
<!-- Created with Inkscape (http://www.inkscape.org/) -->

<svg
   xmlns:osb="http://www.openswatchbook.org/uri/2009/osb"
   xmlns:dc="http://purl.org/dc/elements/1.1/"
   xmlns:cc="http://creativecommons.org/ns#"
   xmlns:rdf="http://www.w3.org/1999/02/22-rdf-syntax-ns#"
   xmlns:svg="http://www.w3.org/2000/svg"
   xmlns="http://www.w3.org/2000/svg"
   xmlns:xlink="http://www.w3.org/1999/xlink"
   xmlns:sodipodi="http://sodipodi.sourceforge.net/DTD/sodipodi-0.dtd"
   xmlns:inkscape="http://www.inkscape.org/namespaces/inkscape"
   width="300"
   height="401.61053"
   viewBox="0 0 300.00001 401.61053"
   id="svg2"
   version="1.1"
   inkscape:version="0.91 r13725"
   sodipodi:docname="tmboxlogo.svg">
  <sodipodi:namedview
     id="base"
     pagecolor="#ffffff"
     bordercolor="#666666"
     borderopacity="1.0"
     inkscape:pageopacity="0.0"
     inkscape:pageshadow="2"
     inkscape:zoom="1.1092352"
     inkscape:cx="208.51556"
     inkscape:cy="209.32028"
     inkscape:document-units="px"
     inkscape:current-layer="layer2"
     showgrid="false"
     inkscape:window-width="1366"
     inkscape:window-height="706"
     inkscape:window-x="-8"
     inkscape:window-y="-8"
     inkscape:window-maximized="1"
     fit-margin-top="0"
     fit-margin-left="0"
     fit-margin-right="0"
     fit-margin-bottom="0"
     units="px" />
  <defs
     id="defs4">
    <linearGradient
       inkscape:collect="always"
       id="linearGradient5812">
      <stop
         style="stop-color:#ffbe00;stop-opacity:1;"
         offset="0"
         id="stop5814" />
      <stop
         style="stop-color:#ffbe00;stop-opacity:0;"
         offset="1"
         id="stop5816" />
    </linearGradient>
    <linearGradient
       inkscape:collect="always"
       id="linearGradient5802">
      <stop
         style="stop-color:#ffbe00;stop-opacity:1;"
         offset="0"
         id="stop5804" />
      <stop
         style="stop-color:#ffbe00;stop-opacity:0;"
         offset="1"
         id="stop5806" />
    </linearGradient>
    <linearGradient
       inkscape:collect="always"
       id="linearGradient5792">
      <stop
         style="stop-color:#ffbe00;stop-opacity:1;"
         offset="0"
         id="stop5794" />
      <stop
         style="stop-color:#ffbe00;stop-opacity:0;"
         offset="1"
         id="stop5796" />
    </linearGradient>
    <linearGradient
       inkscape:collect="always"
       id="linearGradient5782">
      <stop
         style="stop-color:#ffbe00;stop-opacity:1;"
         offset="0"
         id="stop5784" />
      <stop
         style="stop-color:#ffbe00;stop-opacity:0;"
         offset="1"
         id="stop5786" />
    </linearGradient>
    <linearGradient
       inkscape:collect="always"
       id="linearGradient5770">
      <stop
         style="stop-color:#ffbe00;stop-opacity:1;"
         offset="0"
         id="stop5772" />
      <stop
         style="stop-color:#ffbe00;stop-opacity:0;"
         offset="1"
         id="stop5774" />
    </linearGradient>
    <linearGradient
       inkscape:collect="always"
       id="linearGradient5758">
      <stop
         style="stop-color:#ffbe00;stop-opacity:1;"
         offset="0"
         id="stop5760" />
      <stop
         style="stop-color:#ffbe00;stop-opacity:0;"
         offset="1"
         id="stop5762" />
    </linearGradient>
    <linearGradient
       inkscape:collect="always"
       id="linearGradient5690">
      <stop
         style="stop-color:#ffff00;stop-opacity:1;"
         offset="0"
         id="stop5692" />
      <stop
         style="stop-color:#ffff00;stop-opacity:0;"
         offset="1"
         id="stop5694" />
    </linearGradient>
    <linearGradient
       id="linearGradient4265"
       inkscape:collect="always">
      <stop
         id="stop4267"
         offset="0"
         style="stop-color:#000000;stop-opacity:1;" />
      <stop
         id="stop4269"
         offset="1"
         style="stop-color:#000000;stop-opacity:0;" />
    </linearGradient>
    <linearGradient
       id="linearGradient4257"
       inkscape:collect="always">
      <stop
         id="stop4259"
         offset="0"
         style="stop-color:#000000;stop-opacity:1;" />
      <stop
         id="stop4261"
         offset="1"
         style="stop-color:#000000;stop-opacity:0;" />
    </linearGradient>
    <linearGradient
       id="linearGradient4507"
       inkscape:collect="always">
      <stop
         id="stop4509"
         offset="0"
         style="stop-color:#000000;stop-opacity:1;" />
      <stop
         id="stop4511"
         offset="1"
         style="stop-color:#000000;stop-opacity:0;" />
    </linearGradient>
    <linearGradient
       osb:paint="gradient"
       id="linearGradient5438">
      <stop
         id="stop5440"
         offset="0"
         style="stop-color:#ffffff;stop-opacity:1;" />
      <stop
         id="stop5442"
         offset="1"
         style="stop-color:#ffffff;stop-opacity:0;" />
    </linearGradient>
    <linearGradient
       osb:paint="gradient"
       id="linearGradient5399">
      <stop
         id="stop5401"
         offset="0"
         style="stop-color:#ffffff;stop-opacity:1;" />
      <stop
         id="stop5403"
         offset="1"
         style="stop-color:#ffffff;stop-opacity:0;" />
    </linearGradient>
    <linearGradient
       osb:paint="gradient"
       id="linearGradient5379">
      <stop
         id="stop5381"
         offset="0"
         style="stop-color:#000000;stop-opacity:1;" />
      <stop
         id="stop5383"
         offset="1"
         style="stop-color:#ffffff;stop-opacity:0;" />
    </linearGradient>
    <linearGradient
       osb:paint="gradient"
       id="linearGradient5361">
      <stop
         id="stop5363"
         offset="0"
         style="stop-color:#ffffff;stop-opacity:1;" />
      <stop
         id="stop5365"
         offset="1"
         style="stop-color:#ffffff;stop-opacity:0;" />
    </linearGradient>
    <inkscape:perspective
       id="perspective4232"
       inkscape:persp3d-origin="91.018618 : 815.00678 : 1"
       inkscape:vp_z="-271.87815 : 679.58976 : 1"
       inkscape:vp_y="-7.7525494 : -785.36526 : 0"
       inkscape:vp_x="451.19585 : 674.92758 : 1"
       sodipodi:type="inkscape:persp3d" />
    <radialGradient
       gradientUnits="userSpaceOnUse"
       gradientTransform="matrix(0.9786123,0,0,1.211117,721.50973,-859.11171)"
       r="50.718964"
       fy="1162.0844"
       fx="-1485.4545"
       cy="1162.0844"
       cx="-1485.4545"
       id="radialGradient4513"
       xlink:href="#linearGradient4507"
       inkscape:collect="always" />
    <linearGradient
       gradientUnits="userSpaceOnUse"
       y2="475.24451"
       x2="369.03708"
       y1="419.78442"
       x1="341.26984"
       id="linearGradient4263"
       xlink:href="#linearGradient4257"
       inkscape:collect="always"
       gradientTransform="matrix(1.0021816,0,0,0.9095545,-249.56516,-212.48268)" />
    <linearGradient
       gradientUnits="userSpaceOnUse"
       y2="-672.34167"
       x2="101.8945"
       y1="-629.92218"
       x1="-7.2368135"
       id="linearGradient4271"
       xlink:href="#linearGradient4265"
       inkscape:collect="always"
       gradientTransform="matrix(0.9095638,0,0,0.95297032,-4.7313588,320.51687)" />
    <linearGradient
       id="linearGradient3892">
      <stop
         id="stop3894"
         style="stop-color:#ffafec"
         offset="0" />
      <stop
         id="stop3896"
         style="stop-color:#ce8fc7"
         offset="1" />
    </linearGradient>
    <filter
       id="filter4327"
       inkscape:menu="Shadows and Glows"
       inkscape:menu-tooltip="Glow of object's own color at the edges"
       inkscape:label="Glow"
       style="color-interpolation-filters:sRGB">
      <feGaussianBlur
         id="feGaussianBlur4329"
         stdDeviation="10"
         result="result8" />
      <feComposite
         id="feComposite4331"
         operator="in"
         in="SourceGraphic"
         in2="result8"
         result="result6" />
      <feComposite
         id="feComposite4333"
         operator="in"
         in2="result6"
         result="result11" />
      <feFlood
         id="feFlood4335"
         flood-color="rgb(255,222,85)"
         in="result11"
         result="result10" />
      <feBlend
         id="feBlend4337"
         result="result12"
         in="result11"
         in2="result10"
         mode="normal" />
      <feComposite
         id="feComposite4339"
         operator="in"
         in="result12"
         in2="SourceGraphic"
         result="fbSourceGraphic" />
      <feColorMatrix
         id="feColorMatrix4353"
         values="0 0 0 -1 0 0 0 0 -1 0 0 0 0 -1 0 0 0 0 1 0"
         result="fbSourceGraphicAlpha"
         in="fbSourceGraphic" />
      <feGaussianBlur
         id="feGaussianBlur4355"
         in="fbSourceGraphic"
         stdDeviation="5"
         result="result91" />
      <feComposite
         id="feComposite4357"
         operator="over"
         in2="result91"
         in="fbSourceGraphic" />
    </filter>
    <radialGradient
       inkscape:collect="always"
       xlink:href="#linearGradient5690"
       id="radialGradient5696"
       cx="145.14507"
       cy="153.54474"
       fx="145.14507"
       fy="153.54474"
       r="134.32678"
       gradientTransform="matrix(0.98861976,0,0,0.93397203,10.885373,21.563327)"
       gradientUnits="userSpaceOnUse" />
    <radialGradient
       inkscape:collect="always"
       xlink:href="#linearGradient5758"
       id="radialGradient5766"
       cx="241.56136"
       cy="115.8221"
       fx="241.56136"
       fy="115.8221"
       r="40.896355"
       gradientTransform="matrix(1.0173276,0,0,1.2572444,-0.05065481,-71.487204)"
       gradientUnits="userSpaceOnUse" />
    <radialGradient
       inkscape:collect="always"
       xlink:href="#linearGradient5770"
       id="radialGradient5778"
       cx="97.69809"
       cy="121.80642"
       fx="97.69809"
       fy="121.80642"
       r="33.946064"
       gradientTransform="matrix(1.0173276,0,0,1.2153198,-0.05065481,-66.973866)"
       gradientUnits="userSpaceOnUse" />
    <radialGradient
       inkscape:collect="always"
       xlink:href="#linearGradient5782"
       id="radialGradient5788"
       cx="204.69858"
       cy="111.72971"
       fx="204.69858"
       fy="111.72971"
       r="27.641041"
       gradientTransform="matrix(1.0173276,0,0,2.5742979,-0.05065481,-218.23544)"
       gradientUnits="userSpaceOnUse" />
    <radialGradient
       inkscape:collect="always"
       xlink:href="#linearGradient5792"
       id="radialGradient5798"
       cx="50.502068"
       cy="182.82974"
       fx="50.502068"
       fy="182.82974"
       r="47.578705"
       gradientTransform="matrix(1.0173276,0,0,0.85138241,-0.05065481,-3.9274926)"
       gradientUnits="userSpaceOnUse" />
    <radialGradient
       inkscape:collect="always"
       xlink:href="#linearGradient5802"
       id="radialGradient5808"
       cx="272.60916"
       cy="177.6481"
       fx="272.60916"
       fy="177.6481"
       r="37.724545"
       gradientTransform="matrix(1.0173276,0,0,0.6565381,-0.05065481,29.096963)"
       gradientUnits="userSpaceOnUse" />
    <radialGradient
       inkscape:collect="always"
       xlink:href="#linearGradient5812"
       id="radialGradient5818"
       cx="172.17661"
       cy="93.780907"
       fx="172.17661"
       fy="93.780907"
       r="46.340988"
       gradientTransform="matrix(1.0173276,0,0,1.5247199,-0.05065481,-94.385864)"
       gradientUnits="userSpaceOnUse" />
  </defs>
  <metadata
     id="metadata7">
    <rdf:RDF>
      <cc:Work
         rdf:about="">
        <dc:format>image/svg+xml</dc:format>
        <dc:type
           rdf:resource="http://purl.org/dc/dcmitype/StillImage" />
        <dc:title></dc:title>
      </cc:Work>
    </rdf:RDF>
  </metadata>
  <g
     inkscape:label="backgr"
     id="layer4"
     inkscape:groupmode="layer"
     transform="translate(-2.923371,22.053282)">
    <path
       style="opacity:0.75199998;fill:url(#radialGradient5766);fill-opacity:1;stroke:none;stroke-width:1.5;stroke-miterlimit:4;stroke-dasharray:none;stroke-opacity:1"
       id="path5756"
       d="m 204.09138,125.54621 c 1.63776,-2.76855 3.00585,-5.6997 4.19958,-8.74258 1.58496,-4.38077 2.28967,-9.06396 2.99853,-13.70589 0.66072,-4.851997 1.76008,-9.581959 3.59804,-14.026486 1.25415,-3.155559 3.21454,-5.804498 5.26306,-8.322782 1.98222,-2.435885 3.7918,-5.040041 5.66451,-7.582644 1.62894,-2.257273 3.503,-4.255469 5.30186,-6.331731 1.75496,-2.18048 3.44127,-4.429727 5.03079,-6.768842 1.0524,-1.587073 2.26201,-3.028331 3.40686,-4.527876 3.70321,-3.989937 10.49151,-7.165422 13.49569,-9.238512 3.59147,-2.478351 -7.27189,4.785824 -10.92268,7.149188 -0.49017,0.317315 0.92961,-0.727393 1.3821,-1.110421 1.35914,-1.072485 2.58141,-2.333894 3.82068,-3.5729 1.51857,-1.283888 2.87919,-2.763756 4.21936,-4.278567 1.28011,-1.524598 2.72373,-2.806517 4.20755,-4.052789 4.09274,-2.675764 8.18044,-5.361543 12.27822,-8.027294 0.76072,-0.49488 1.53234,-0.676708 2.32838,-1.04541 0.24549,-0.113702 0.92691,-0.585508 0.69679,-0.435868 -3.66864,2.385604 -7.34163,4.762546 -11.01245,7.143818 4.97464,-3.844215 9.89736,-8.415307 15.79928,-9.993992 1.67096,-0.320666 3.01789,-1.481224 4.66333,-1.990217 4.68588,-2.551601 12.78147,-8.088255 -7.2347,4.962198 0.92296,-0.752161 0.45951,-0.3829 1.39021,-1.107998 0,0 12.63499,-5.543382 12.63499,-5.543382 l 0,0 c -0.99398,0.578935 -0.51272,0.249949 -1.44187,0.990535 -4.96633,3.332534 -10.3588,7.742705 -16.03913,10.153871 -1.55052,0.707119 -3.01099,1.64033 -4.68088,1.963256 -0.51135,0.227935 -1.97736,1.082721 -1.50341,0.766953 19.41476,-12.935045 13.02896,-8.835363 9.03232,-5.866509 -4.07305,2.70446 -8.12406,5.452409 -12.21915,8.113381 -0.69217,0.449764 -1.55148,0.701332 -2.27227,1.119073 -0.24191,0.140209 -0.95838,0.58037 -0.72426,0.423938 3.63616,-2.429593 7.28762,-4.829403 10.93143,-7.244105 -1.59728,1.070957 -3.0238,2.369033 -4.38841,3.795993 -1.30635,1.519562 -2.5498,3.19858 -4.12656,4.354367 -1.26355,1.245841 -2.46005,2.540816 -3.76257,3.729797 -0.47253,0.34747 -0.86876,0.821907 -1.35185,1.150013 -5.67219,3.85242 -25.38039,16.760351 -1.38673,0.921831 0.42991,-0.283786 -1.62033,1.156346 -1.28622,0.858163 -1.31342,1.307106 -2.29748,2.98318 -3.56063,4.359905 -1.54357,2.470701 -3.35986,4.65814 -5.05055,6.99751 -1.75676,2.101255 -3.60762,4.074378 -5.31002,6.229483 -1.92454,2.531637 -3.76539,5.143969 -5.66967,7.692363 -2.10935,2.357112 -4.10312,4.942263 -5.48378,7.93482 -2.04692,4.259349 -3.27365,8.866981 -3.88088,13.676064 -0.68935,4.706205 -1.36365,9.429695 -2.702,13.966205 -1.1818,3.00931 -2.37648,5.98719 -3.90713,8.79476 0,0 -12.42576,6.26931 -12.42576,6.26931 z"
       inkscape:connector-curvature="0" />
    <path
       style="opacity:0.75199998;fill:url(#radialGradient5778);fill-opacity:1;stroke:none;stroke-width:1.5;stroke-miterlimit:4;stroke-dasharray:none;stroke-opacity:1"
       id="path5768"
       d="m 122.16598,122.3152 c -1.38834,-2.17009 -2.54708,-4.52503 -3.51773,-6.96796 -1.04291,-3.36907 -1.95454,-6.78572 -2.92475,-10.18183 -0.79212,-3.21543 -1.70578,-6.390141 -2.50214,-9.603789 -0.6148,-3.129282 -1.98772,-5.890336 -3.39514,-8.623967 -1.07899,-2.32443 -2.19727,-4.632219 -3.464,-6.831853 -1.10682,-2.237852 -2.48638,-4.253917 -3.9629,-6.18536 -1.508,-2.06408 -3.399513,-3.660997 -5.037627,-5.57852 -1.685649,-2.148111 -3.453717,-4.209909 -5.383113,-6.074229 -1.67213,-1.008363 -2.975825,-2.596791 -4.572311,-3.716191 -1.539189,-1.056366 -3.120282,-2.028005 -4.687388,-3.030678 -1.521757,-0.806674 -3.186232,-1.202672 -4.71457,-1.976347 -1.679621,-0.570913 -3.249402,-1.437177 -4.854293,-2.231739 -1.730634,-0.623575 -3.430735,-1.324612 -5.219346,-1.711669 -1.21309,-0.0017 -2.132184,-0.702666 -3.124636,-1.38085 0,0 11.384509,-8.415662 11.384509,-8.415662 l 0,0 c 0.898526,0.56608 1.81504,0.888774 2.844253,1.023406 1.826381,0.514598 3.624618,1.185502 5.376634,1.963386 1.588576,0.814037 3.213162,1.499503 4.848188,2.177896 1.62066,0.666415 3.298988,1.204027 4.81342,2.160633 1.565664,1.063195 3.210539,1.966369 4.729876,3.116955 1.563574,1.275969 3.026204,2.706231 4.625334,3.929873 1.87081,1.985489 3.64257,4.083119 5.43022,6.164685 1.66162,1.92065 3.53068,3.593028 5.0513,5.673229 1.51737,1.982445 2.95052,4.044776 4.07689,6.350805 1.2811,2.224452 2.40916,4.563984 3.44917,6.944825 1.42148,2.867367 2.89455,5.726153 3.56457,8.969125 0.72276,3.21593 1.67398,6.355842 2.45068,9.554968 0.92439,3.348638 1.78597,6.716368 2.86091,10.010468 0.95389,2.32254 2.07272,4.62572 3.56258,6.5605 0,0 -11.70859,7.90989 -11.70859,7.90989 z"
       inkscape:connector-curvature="0" />
    <path
       style="opacity:0.75199998;fill:url(#radialGradient5788);fill-opacity:1;stroke:none;stroke-width:1.5;stroke-miterlimit:4;stroke-dasharray:none;stroke-opacity:1"
       id="path5780"
       d="m 189.23527,140.5464 c 0.16853,-2.68113 -0.1145,-5.36403 -0.51082,-8.00344 -0.57109,-4.13489 -1.1804,-8.25896 -1.54939,-12.4251 -0.42627,-4.61571 -1.26892,-9.15538 -1.79229,-13.75599 -0.40036,-3.61539 -1.28031,-7.118083 -1.88444,-10.68847 -0.41104,-2.66088 -0.9389,-5.28477 -1.24407,-7.967027 -0.37883,-2.566275 -0.79373,-5.120321 -1.0296,-7.710278 -0.1188,-2.17484 -0.57775,-4.296512 -0.83377,-6.45266 -0.22476,-2.101231 -0.25923,-4.219579 -0.28296,-6.333549 -0.0144,-2.089384 -0.008,-4.178861 -0.006,-6.268279 -0.0928,-2.150937 0.0595,-4.260738 0.37059,-6.37893 0.23825,-2.347045 0.97015,-4.56413 1.54291,-6.819455 0.43463,-2.100215 0.9633,-4.184866 1.71879,-6.165609 0.80934,-1.944542 1.63411,-3.880765 2.42421,-5.835846 0.60942,-2.082301 1.5907,-3.953354 2.65201,-5.770672 1.03092,-1.55734 2.21866,-2.980477 3.46688,-4.313607 1.17795,-1.378773 2.33842,-2.773701 3.51202,-4.157749 1.13241,-1.283562 2.3432,-2.476298 3.45152,-3.786236 1.22686,-1.376926 2.36266,-2.854805 3.60891,-4.210146 4.11887,-5.1063052 10.11676,-7.2560305 15.22832,-10.9007105 0.88,-0.65706 1.94564,-0.5744984 2.91352,-0.8614158 0.4649,-0.1378095 0.89377,-0.4028586 1.34944,-0.5760305 1.4425,-0.35580769 2.86971,-0.8667789 4.21538,-1.57280183 1.65453,-0.76615227 3.43563,-0.95349917 5.20021,-1.07980647 1.52566,-0.123096 3.05577,0.062734 4.55832,-0.2787378 0,0 -10.83728,9.1972617 -10.83728,9.1972617 l 0,0 c -1.52964,0.095682 -3.06405,0.070899 -4.59031,0.2407593 -1.71947,0.2286214 -3.40231,0.6300081 -4.98855,1.4502942 -1.42147,0.5385755 -2.8301,1.0814517 -4.28185,1.5065497 -1.39458,0.491278 -2.86935,0.703741 -4.10638,1.670474 -4.48841,2.423436 -0.37448,0.22762 10.29964,-6.9126279 0.21075,-0.1409792 -0.44836,0.2271332 -0.65423,0.3771768 -0.70316,0.512501 -1.09745,1.344873 -1.81498,1.8372221 -1.15737,1.4180332 -2.40249,2.772369 -3.60292,4.136927 -1.06365,1.422234 -2.27917,2.616921 -3.44004,3.929727 -1.2914,1.202682 -2.28053,2.763115 -3.499,4.046437 -1.11029,1.470127 -2.48895,2.659568 -3.60864,4.131455 -1.10047,1.68625 -2.18885,3.48691 -2.76434,5.491538 -0.73286,2.006125 -1.59816,3.915336 -2.37982,5.89183 -0.90591,1.82654 -1.41542,3.903724 -1.86932,5.923269 -0.51274,2.22068 -1.27431,4.377064 -1.56059,6.654798 -0.30518,2.049285 -0.62775,4.055302 -0.46742,6.149386 -0.002,2.084113 -0.008,4.168251 -8.4e-4,6.252354 0.0135,2.060744 0.0286,4.125287 0.20842,6.177844 0.22351,2.183733 0.70174,4.321885 0.83098,6.513146 0.18039,2.586275 0.51684,5.148091 0.99079,7.686722 0.25359,2.67121 0.79961,5.269089 1.14866,7.921156 0.53291,3.628894 1.40571,7.180775 1.78459,10.841655 0.48457,4.620522 1.31591,9.176502 1.77226,13.802002 0.38807,4.10541 1.01943,8.16203 1.66907,12.22235 0.45408,2.68043 0.7674,5.406 0.8135,8.13643 0,0 -12.13118,7.03641 -12.13118,7.03641 z"
       inkscape:connector-curvature="0" />
    <path
       style="opacity:0.75199998;fill:url(#radialGradient5798);fill-opacity:1;stroke:none;stroke-width:1.5;stroke-miterlimit:4;stroke-dasharray:none;stroke-opacity:1"
       id="path5790"
       d="m 88.222923,138.28829 c -1.756494,-1.10962 -3.445563,-2.32562 -5.089752,-3.64655 -2.014912,-1.57882 -4.205122,-2.83101 -6.35985,-4.13739 -1.985099,-1.15981 -4.024987,-2.16565 -6.110212,-3.06671 -1.692742,-0.60778 -3.286689,-1.51758 -4.974759,-2.14724 -1.818106,-0.80828 -3.54279,-1.82861 -5.327638,-2.714 -1.923553,-0.97416 -4.047464,-0.93442 -6.061499,-1.44686 -2.167799,-0.59466 -4.399551,-0.73306 -6.618968,-0.83565 -2.085696,-0.15066 -4.114882,-0.10481 -6.162411,0.3369 -1.156948,0.65927 -2.467841,0.80163 -3.678972,1.24479 -0.528308,0.1933 -1.018807,0.50209 -1.536829,0.72861 1.036872,-1.17024 -4.369785,2.3589 -3.009834,1.48027 10.993919,-7.10281 14.232399,-10.25661 10.379871,-6.58624 -1.070655,1.27459 -1.934653,2.70805 -2.421874,4.38352 -0.291372,1.73663 -0.77876,3.41279 -1.052733,5.15301 -0.253245,1.95068 -0.270797,3.92693 -0.291963,5.89463 0.08301,2.1481 -0.06292,4.25551 -0.369905,6.37191 -0.323117,2.03985 -0.439102,4.10791 -0.506366,6.17572 -0.05513,2.12442 -0.03595,4.24992 -0.05835,6.37483 -0.0098,2.35427 0.0037,4.70857 0.01043,7.06283 0.09254,2.01372 -0.0097,3.95688 -0.681086,5.83301 -0.553779,1.68703 -1.127886,3.37762 -1.841831,4.98653 -0.818446,1.7975 -1.922287,3.41517 -3.089252,4.93597 -4.537334,5.33286 -10.95784,7.79348 -16.474156,11.61762 -1.847614,0.953 -3.682346,1.95152 -5.554791,2.84329 -1.482665,1.09081 -3.110174,1.96874 -4.7993459,2.55749 -1.1818456,0.3606 -2.4021157,0.46146 -3.6174761,0.54963 0,0 10.866112,-9.16433 10.866112,-9.16433 l 0,0 c 1.160431,-0.16426 2.320142,-0.36278 3.412536,-0.86535 1.614884,-0.77899 3.151957,-1.7274 4.720243,-2.6146 1.830787,-0.95814 3.710667,-1.81265 5.455716,-2.96756 4.144461,-2.56807 9.960421,-6.48946 -8.868974,5.99027 -1.418371,0.94007 3.85358,-2.62556 2.413318,-1.99613 1.176335,-1.42089 2.22947,-2.91138 3.17518,-4.51747 0.687925,-1.59424 1.436926,-3.16846 1.908173,-4.86727 0.09195,-0.28147 0.183887,-0.56293 0.27583,-0.84439 0.109357,-0.20784 0.250814,-0.39779 0.32807,-0.62354 0.422439,-1.2344 0.33706,-2.58233 0.340436,-3.87383 0.0048,-2.35633 0.01441,-4.71271 3.69e-4,-7.06901 -0.02483,-2.13455 -0.01699,-4.26963 0.01365,-6.40409 0.04841,-2.12689 0.127003,-4.2579 0.42911,-6.36137 0.302055,-2.05103 0.618509,-4.05898 0.458919,-6.15367 0.0089,-2.0259 0.01189,-4.05621 0.183726,-6.07463 0.196083,-1.81815 0.674714,-3.52426 0.990214,-5.30198 0.350236,-1.96661 1.067774,-3.53294 2.134365,-5.11632 3.872417,-5.39856 10.146833,-7.96449 15.812017,-10.30884 1.740027,-0.70405 3.555399,-1.21094 5.347238,-1.70392 2.086924,-0.30055 4.185853,-0.15165 6.282053,-0.0419 2.272214,0.16053 4.542976,0.38614 6.76624,0.97438 2.118006,0.37525 4.252042,0.71304 6.218148,1.75656 1.745518,0.9094 3.501424,1.77999 5.287801,2.58249 1.682128,0.6938 3.316436,1.51477 4.996171,2.2137 2.087125,0.98215 4.147301,2.02075 6.133647,3.24991 2.212511,1.32526 4.430062,2.6546 6.503958,4.25131 1.689285,1.31608 3.423976,2.50556 5.221987,3.61678 0,0 -11.506701,8.28493 -11.506701,8.28493 z"
       inkscape:connector-curvature="0" />
    <path
       style="opacity:0.75199998;fill:url(#radialGradient5808);fill-opacity:1;stroke:none;stroke-width:1.5;stroke-miterlimit:4;stroke-dasharray:none;stroke-opacity:1"
       id="path5800"
       d="m 238.90393,170.49731 c 1.17672,-1.86063 2.35434,-3.7214 3.52899,-5.58435 1.30093,-2.08126 2.509,-4.23528 3.84331,-6.28907 1.03481,-1.78574 2.26947,-3.37121 3.73774,-4.70338 4.49266,-3.64165 9.32772,-6.21001 14.14754,-9.59298 3.5838,-2.51545 -7.29272,4.79227 -10.94843,7.16986 -0.21821,0.14193 0.42346,-0.30825 0.63517,-0.46238 4.14663,-2.63251 8.28937,-5.27296 12.43987,-7.89753 0.24502,-0.15493 0.49757,-0.29387 0.74635,-0.44079 0.26233,-0.12185 0.53816,-0.21128 0.78699,-0.36552 0.23113,-0.14327 0.87222,-0.6688 0.64329,-0.52104 -10.50355,6.7797 -14.34287,9.95154 -10.2104,6.57961 40.22417,-26.39678 -8.29475,5.34118 2.72018,-1.94911 4.0976,-2.71201 8.23788,-5.34139 12.30356,-8.11495 3.5657,-2.43251 -7.20229,4.72772 -10.80345,7.09159 4.95568,-4.06384 10.29321,-7.15224 15.65474,-10.65385 -27.16533,17.73536 -1.23094,0.7841 1.32736,-0.80104 3.68715,-2.28459 -14.55497,9.53187 -10.93174,7.1184 4.42935,-2.95044 8.76118,-7.10461 13.88557,-8.58828 1.56038,-0.72349 3.23657,-1.0153 4.59763,-2.19931 -26.51932,17.42766 -1.8896,1.20231 1.30553,-0.72598 3.74959,-2.26293 -7.36339,4.80613 -11.05126,7.19691 -0.19891,0.12895 0.38503,-0.28253 0.58408,-0.41123 4.09164,-2.64551 8.10834,-5.44946 12.28758,-7.91112 3.77467,-2.22335 -7.38194,4.7971 -11.07291,7.19565 5.07875,-4.62756 8.73619,-6.21918 13.56502,-8.65117 0.77398,-0.38981 1.53104,-0.56305 2.27596,-1.0326 1.51348,-0.7477 3.15048,-1.04012 4.73905,-1.52492 1.74866,-0.96137 3.63604,-1.38561 5.5561,-1.56615 2.04769,-0.57653 4.13214,-0.90975 6.23243,-1.09422 1.47695,-0.13776 2.96727,0.20349 4.23059,-0.80625 0,0 -10.66331,9.55809 -10.66331,9.55809 l 0,0 c -1.45931,0.29923 -2.94434,0.21387 -4.41689,0.39708 -2.08328,0.25758 -4.1311,0.72632 -6.19507,1.12733 -1.88487,0.37027 -3.67022,1.0497 -5.47313,1.76364 -1.56934,0.49323 -3.17892,0.83079 -4.62442,1.73494 -4.94864,2.03407 -12.84232,7.90182 7.45011,-5.45973 -40.77937,26.58086 7.52525,-5.01516 -1.81298,1.09639 -4.0762,2.66775 -8.12648,5.38707 -12.21977,8.02071 -0.38247,0.24608 31.84019,-20.93773 -1.23894,0.81064 -1.55585,0.74185 -3.16794,1.28649 -4.75328,1.94107 -0.48807,0.2327 -1.89445,1.07055 -1.43707,0.76767 3.62698,-2.40178 14.59976,-9.42102 10.89907,-7.16968 -4.17159,2.53781 -8.10677,5.56576 -12.31247,8.02953 -0.54585,0.31977 31.92662,-21.03841 -1.31726,0.83812 20.59692,-13.6328 11.52466,-8.25144 7.55094,-4.5338 -40.35948,26.58078 8.1517,-5.40683 -2.84288,1.90917 -4.08026,2.71508 -8.19132,5.37135 -12.23537,8.15573 -3.57893,2.46413 7.22656,-4.7966 10.83983,-7.19489 -0.23172,0.173 -0.45705,0.3576 -0.69515,0.519 -4.07113,2.7595 -8.1406,5.52243 -12.23182,8.24318 -0.47158,0.31361 -0.99045,0.5246 -1.49093,0.77349 -0.26163,0.13011 -1.03634,0.54041 -0.7908,0.37458 3.59884,-2.43077 7.23835,-4.78262 10.85752,-7.17395 -4.9647,3.04413 2.39774,-1.48099 -12.89347,8.51894 -3.64096,2.38106 7.24842,-4.82795 10.8794,-7.22869 1.667,-1.10221 -3.58648,2.50086 -1.83677,1.56579 -1.6702,0.87412 -3.01498,2.4998 -4.01532,4.22871 -1.38633,1.98979 -2.55912,4.13711 -3.85393,6.20173 -1.07935,1.8988 -2.39349,3.62861 -3.37873,5.58661 0,0 -12.50355,6.1338 -12.50355,6.1338 z"
       inkscape:connector-curvature="0" />
    <path
       style="opacity:0.75199998;fill:url(#radialGradient5818);fill-opacity:1;stroke:none;stroke-width:1.5;stroke-miterlimit:4;stroke-dasharray:none;stroke-opacity:1"
       id="path5810"
       d="m 127.96538,119.26078 c 1.98189,-1.52362 3.61098,-3.50717 5.17704,-5.54189 2.19853,-2.90806 4.45988,-5.75192 6.54376,-8.76885 2.74081,-3.8519 4.67493,-8.334683 6.66172,-12.718363 2.26362,-5.458067 4.73324,-10.799027 7.08135,-16.2096 2.57112,-5.692719 4.56217,-11.684897 6.23922,-17.784593 1.48949,-5.85854 2.33212,-11.868571 2.82787,-17.929244 0.48079,-4.868365 0.18388,-9.710842 -0.43715,-14.534886 -0.57394,-3.439275 -1.41732,-6.811974 -2.40676,-10.124102 -0.82344,-2.271625 -1.93568,-4.368048 -3.40287,-6.1669067 -1.31737,-1.7421589 -2.96019,-3.2314681 -4.01339,-5.2018268 -0.76622,-1.8019917 -0.48329,-3.38997383 0.63865,-4.84829589 4.75388,-4.11569711 9.96005,-7.65889701 15.65126,-9.65051161 1.70372,-0.908675 3.54371,-1.397977 5.33881,-2.014711 1.80059,-0.740973 3.7121,-1.11098 5.52221,-1.806066 1.80801,-0.689314 3.7028,-0.903697 5.59444,-1.027201 2.01658,0.02271 3.98579,-0.120793 5.97996,-0.423979 2.62621,-0.402186 5.28011,-0.50463 7.92601,-0.6051 2.44929,-0.07376 4.89986,-0.04872 7.34979,-0.05552 1.81774,-0.416362 3.63507,-0.773214 5.48429,-0.939609 1.03929,-0.03023 2.12717,-0.337517 3.03366,-0.939708 0.24443,-0.16238 0.95317,-0.69405 0.70682,-0.535456 -3.63294,2.338862 -7.24561,4.718284 -10.86841,7.077426 1.34477,-1.194287 2.67735,-2.405154 4.02183,-3.599353 0.7341,-0.7434 0.36947,-0.387503 1.09244,-1.069658 0,0 12.54538,-5.896058 12.54538,-5.896058 l 0,0 c -0.65381,0.846247 -0.29138,0.46757 -1.0871,1.136285 -1.20694,1.40811 -2.71288,2.408071 -4.00643,3.713509 -5.77644,3.911607 -9.92847,8.7815084 -16.30662,9.289486 -1.83161,0.2483066 -3.64163,0.7278437 -5.49116,0.7583119 -2.4381,-0.00533 -4.87639,0.00926 -7.31364,0.089277 -2.63091,0.1036145 -5.25978,0.2822155 -7.86529,0.7325884 -2.02019,0.2843823 -4.04692,0.2559801 -6.07585,0.4107557 -1.84395,0.2113217 -3.65712,0.6002647 -5.41804,1.2749207 -1.8574,0.5339397 -3.67438,1.2023814 -5.51032,1.8228734 -1.79495,0.6462966 -3.60457,1.224319 -5.34213,2.06169164 -0.5251,0.21581978 -1.06068,0.39901958 -1.5805,0.63082567 -0.22258,0.09924852 -0.85911,0.47523711 -0.65307,0.33727472 19.80249,-13.25913713 13.61165,-9.44034303 9.90926,-6.46300563 -1.08804,0.478672 -2.05107,1.4070047 -1.5524,2.8222063 0.93006,1.9087679 2.6171,3.27917224 3.82316,4.9588926 1.55585,1.9873572 2.7369,4.2915835 3.6342,6.7492675 0.98741,3.4199311 1.74343,6.9312741 2.35796,10.4611951 0.62912,4.955496 0.97607,9.92281 0.44884,14.92347 -0.4736,6.158083 -1.37496,12.24028 -2.74161,18.228195 -1.65265,6.178869 -3.66201,12.226925 -6.19433,18.015998 -2.30026,5.396583 -4.76824,10.699917 -6.94312,16.165881 -1.96148,4.419142 -3.84792,8.968198 -6.48246,12.923697 -1.98424,3.050746 -4.17176,5.918576 -6.38542,8.754396 -1.43918,2.10975 -3.02335,4.11685 -4.86046,5.78862 0,0 -12.6514,5.72745 -12.6514,5.72745 z"
       inkscape:connector-curvature="0" />
  </g>
  <g
     inkscape:label="background-1"
     id="layer2"
     inkscape:groupmode="layer"
     transform="translate(-2.923371,22.053282)">
    <ellipse
       style="opacity:0.5;fill:url(#radialGradient5696);fill-opacity:1;stroke:none;stroke-width:3.5;stroke-miterlimit:4;stroke-dasharray:none;stroke-opacity:1"
       id="path5656"
       cx="154.37865"
       cy="164.96983"
       rx="132.79811"
       ry="125.45745" />
    <g
       id="flowRoot4817"
       style="font-style:normal;font-variant:normal;font-weight:normal;font-stretch:normal;font-size:50px;line-height:125%;font-family:sans-serif;-inkscape-font-specification:'sans-serif, Normal';text-align:start;letter-spacing:0px;word-spacing:0px;writing-mode:lr-tb;text-anchor:start;display:inline;fill:#ffd508;fill-opacity:1;stroke:#ffff00;stroke-width:5.12525892;stroke-linecap:butt;stroke-linejoin:miter;stroke-miterlimit:4;stroke-dasharray:none;stroke-opacity:1"
       transform="matrix(0.68798004,0,0,0.60951813,-29.345651,-125.66856)">
      <path
         style="fill:#ffd508;fill-opacity:1;stroke:#ffff00;stroke-width:5.12525892;stroke-miterlimit:4;stroke-dasharray:none;stroke-opacity:1"
         id="path4828"
         d="m 252.92588,489.18616 c 0,0 -70.32223,37.73461 -70.32223,37.73461 0,0 -1.18306,159.0654 -1.18306,159.0654 0,0 -21.97612,4.30531 -21.97612,4.30531 0,0 1.47472,-151.73492 1.47472,-151.73492 0,0 -49.382,26.49818 -49.382,26.49818 0,0 0.26527,-17.81084 0.26527,-17.81084 0,0 141.12342,-82.03212 141.12342,-82.03212 0,0 0,23.97438 0,23.97438 0,0 0,0 0,0"
         inkscape:connector-curvature="0" />
    </g>
    <g
       transform="matrix(0.68190316,-0.00401413,0.00367327,0.63954332,5.001046,-142.51568)"
       style="font-style:normal;font-variant:normal;font-weight:normal;font-stretch:normal;font-size:50px;line-height:125%;font-family:sans-serif;-inkscape-font-specification:'sans-serif, Normal';text-align:start;letter-spacing:0px;word-spacing:0px;writing-mode:lr-tb;text-anchor:start;display:inline;fill:#ffc800;fill-opacity:1;stroke:#fff800;stroke-width:5.0256629;stroke-linecap:butt;stroke-linejoin:miter;stroke-miterlimit:4;stroke-dasharray:none;stroke-opacity:1"
       id="flowRoot4996">
      <path
         style="fill:#ffc800;fill-opacity:1;stroke:#fff800;stroke-width:5.0256629;stroke-miterlimit:4;stroke-dasharray:none;stroke-opacity:1"
         inkscape:connector-curvature="0"
         d="m 241.63477,672.973 c 0,0 25.06894,7.40131 25.06894,7.40131 0,0 1.42782,-163.07407 1.42782,-163.07407 0,0 40.94421,129.75209 40.94421,129.75209 0,0 9.99417,4.61131 9.99417,4.61131 0,0 29.87717,-68.79185 29.87717,-68.79185 0,0 -0.12941,121.74569 -0.12941,121.74569 0,0 11.37622,3.35869 11.37622,3.35869 0,0 0,-134.367 0,-134.367 0,0 -16.76923,-14.97834 -16.76923,-14.97834 0,0 -30.15876,62.98731 -30.15876,62.98731 0,0 -36.31767,-122.36432 -36.31767,-122.36432 0,0 -33.05519,-29.52502 -33.05519,-29.52502 0,0 -2.25827,203.2442 -2.25827,203.2442 0,0 0,0 0,0"
         id="path5005" />
    </g>
    <path
       inkscape:connector-curvature="0"
       id="path5181"
       d="m 93.169672,324.1349 c -31.004804,-4.51492 -56.590046,-8.39879 -56.856093,-8.63081 -1.477562,-1.2886 6.893151,-3.08236 61.630582,-13.2068 l 60.030569,-11.10348 7.50465,2.10083 c 11.49512,3.21789 94.36555,26.94409 96.12998,27.52246 0.85532,0.28036 1.30352,0.74124 0.99602,1.02416 -0.53588,0.49301 -109.64841,10.83585 -111.94704,10.61153 -0.61396,-0.06 -26.48386,-3.80297 -57.488668,-8.31789 z"
       style="display:inline;fill:#4d4d4d;fill-opacity:1;stroke:#100606;stroke-width:0.24840632;stroke-miterlimit:4;stroke-dasharray:none;stroke-opacity:1" />
    <path
       inkscape:connector-curvature="0"
       id="path5189"
       d="m 150.1769,332.37559 c -0.21014,-0.31282 -0.9232,-0.52077 -1.58458,-0.46209 -0.66138,0.0587 -1.64205,-0.068 -2.17926,-0.28137 -0.53721,-0.21343 -1.34546,-0.25788 -1.79609,-0.0988 -0.45063,0.1591 -0.98343,0.0451 -1.18398,-0.25354 -0.20084,-0.29899 -1.08636,-0.41002 -1.97137,-0.24716 -0.95438,0.1756 -1.60673,0.0767 -1.60673,-0.24374 0,-0.29664 -0.6907,-0.48878 -1.5349,-0.42696 -0.84418,0.0618 -1.97442,-0.061 -2.51163,-0.27299 -0.53721,-0.21196 -1.34545,-0.25522 -1.79609,-0.0961 -0.45064,0.15909 -0.98344,0.0451 -1.18398,-0.25355 -0.20055,-0.29855 -1.07793,-0.41157 -1.94973,-0.25115 -0.87181,0.16042 -1.7444,0.0546 -1.93912,-0.23533 -0.19471,-0.28986 -0.89515,-0.47901 -1.55652,-0.42033 -0.66139,0.0587 -1.64206,-0.068 -2.17927,-0.28137 -0.53721,-0.21344 -1.34544,-0.25789 -1.79608,-0.0988 -0.45065,0.15909 -0.97789,0.0533 -1.17164,-0.23517 -0.19377,-0.28844 -1.01809,-0.47627 -1.83184,-0.41739 -0.81375,0.0588 -1.91907,-0.0664 -2.45629,-0.27832 -0.53721,-0.21197 -1.34546,-0.25522 -1.79609,-0.0961 -0.45063,0.1591 -0.98343,0.0451 -1.18398,-0.25355 -0.20084,-0.29897 -1.08636,-0.41 -1.97137,-0.24716 -0.95438,0.17561 -1.60674,0.0767 -1.60674,-0.24372 0,-0.29664 -0.69069,-0.48878 -1.53488,-0.42698 -0.8442,0.0618 -1.94858,-0.0519 -2.45419,-0.25269 -0.50559,-0.20081 -1.25909,-0.31306 -1.67442,-0.24947 -0.41533,0.0636 -1.19842,-0.0624 -1.74023,-0.27997 -0.5418,-0.2176 -1.48366,-0.27568 -2.09303,-0.12906 -0.60937,0.14661 -1.10795,0.0396 -1.10795,-0.23759 0,-0.27726 -0.6907,-0.45354 -1.534891,-0.39172 -0.844193,0.0618 -1.974422,-0.061 -2.511638,-0.27299 -0.537216,-0.21196 -1.345452,-0.25522 -1.796085,-0.0961 -0.450643,0.15909 -0.983429,0.0451 -1.183981,-0.25355 -0.200551,-0.29855 -1.077931,-0.41156 -1.949726,-0.25115 -0.871805,0.16042 -1.744409,0.0544 -1.939119,-0.23533 -0.194708,-0.28986 -0.895155,-0.47901 -1.556531,-0.42034 -0.661387,0.0587 -1.579261,-0.0306 -2.039731,-0.19836 -0.460459,-0.16777 -7.367471,-1.25901 -15.348905,-2.42499 -27.218092,-3.97618 -32.372251,-4.87604 -32.372251,-5.65183 0,-0.79351 5.666936,-2.18814 12.279121,-3.02188 2.148854,-0.27095 8.679123,-1.4393 14.5117,-2.59631 5.832589,-1.15702 11.734945,-2.23015 13.116344,-2.38473 1.381409,-0.1546 2.888391,-0.41448 3.34886,-0.57756 0.46046,-0.16306 5.358162,-1.1627 10.883774,-2.2214 39.046139,-7.48128 58.540589,-11.27245 60.379349,-11.7422 4.32601,-1.10519 -0.16544,-2.24999 67.71431,17.25929 19.18615,5.51429 36.10815,10.36609 37.60447,10.7818 1.49632,0.4157 2.50097,0.94808 2.23258,1.18306 -0.26841,0.23497 -4.8206,0.84228 -10.11597,1.34955 -5.29538,0.50726 -9.6278,1.04852 -9.62761,1.20279 1.9e-4,0.15427 -1.25563,0.20043 -2.79071,0.10261 -1.53508,-0.0979 -2.79107,0.0291 -2.79107,0.282 0,0.25298 -0.87785,0.36567 -1.95078,0.25043 -1.07295,-0.11523 -2.39156,-0.0379 -2.93025,0.17177 -0.53871,0.20972 -1.89576,0.33443 -3.0157,0.27714 -1.11994,-0.0573 -2.19199,0.12769 -2.38233,0.41104 -0.19035,0.28335 -1.20959,0.38627 -2.26497,0.2287 -1.0554,-0.15757 -2.3694,-0.10944 -2.92002,0.10701 -0.55063,0.21644 -2.00579,0.45723 -3.2337,0.53506 -1.22792,0.0778 -3.61398,0.26937 -5.30236,0.42564 -1.68837,0.15623 -4.02431,0.28424 -5.19094,0.28442 -1.16664,1.9e-4 -2.42247,0.18008 -2.79071,0.39978 -0.36826,0.21969 -1.67421,0.44609 -2.90212,0.50312 -1.22792,0.057 -3.48839,0.22228 -5.02328,0.36724 -1.5349,0.14495 -4.10928,0.37885 -5.72087,0.51978 l -5.8605,0.51245 c -1.61168,0.14093 -4.06057,0.36797 -5.44197,0.50456 -1.38141,0.13657 -4.01863,0.37021 -5.8605,0.51918 -3.25916,0.26362 -5.09178,0.42787 -11.44191,1.02553 -1.68838,0.1589 -4.40964,0.27908 -6.04724,0.26706 -1.63761,-0.012 -3.3106,0.23251 -3.71777,0.5434 -0.53906,0.41161 -0.84419,0.41064 -1.12239,-0.003 z"
       style="display:inline;fill:#4d4d4d;fill-opacity:1;stroke:#000000;stroke-width:1.33839619;stroke-miterlimit:4;stroke-dasharray:none;stroke-opacity:1" />
    <rect
       inkscape:transform-center-y="-7.5152751"
       inkscape:transform-center-x="-36.43007"
       transform="matrix(-0.94163864,-0.33662541,-0.99255549,0.12179329,0,0)"
       y="486.88196"
       x="-781.80847"
       height="122.8532"
       width="99.268394"
       id="rect5193"
       style="display:inline;opacity:0.83499995;fill:url(#radialGradient4513);fill-opacity:1;stroke:none;stroke-width:1.37394297;stroke-miterlimit:4;stroke-dasharray:none;stroke-opacity:1" />
    <path
       inkscape:connector-curvature="0"
       id="path5201"
       d="m 263.99764,321.13109 c -2.62673,-0.89834 -93.388,-26.90436 -101.33594,-29.03598 l -6.22137,-1.66858 0.48373,-7.26996 c 0.26606,-3.99847 0.67806,-37.49824 0.91555,-74.44394 0.43789,-68.1208 0.83495,-85.21086 1.97064,-84.81992 0.34671,0.11936 24.64112,20.58392 53.98757,45.47679 l 53.35716,45.25979 -0.11031,26.63454 c -0.0607,14.649 -0.32707,38.76374 -0.59201,53.58834 l -0.48169,26.95379 -1.97333,-0.67487 z m -9.6638,-54.79836 -0.43144,-44.04866 -5.41104,-4.60982 c -2.97607,-2.53541 -5.96819,-4.91516 -6.64917,-5.28836 -1.03742,-0.56853 -2.68597,2.22801 -10.16883,17.2501 -9.08855,18.24556 -9.88705,19.63962 -10.77928,18.81875 -0.27825,-0.256 -5.80541,-16.90062 -12.28255,-36.98805 -9.5022,-29.46898 -12.13406,-36.80311 -13.62737,-37.97501 -1.0179,-0.79882 -6.52039,-5.33516 -12.22774,-10.08075 -5.70736,-4.74558 -10.49324,-8.5037 -10.63531,-8.35135 -0.14205,0.15233 -0.49613,29.88464 -0.78685,66.07182 -0.42665,53.1099 -0.33344,65.93151 0.48346,66.50374 0.84477,0.59172 4.7905,1.7379 17.38486,5.05003 1.29611,0.34087 1.38724,-2.33098 1.57866,-46.28372 0.13189,-30.28476 0.48,-46.73017 0.99249,-46.88694 0.43413,-0.1328 6.29514,15.84851 13.02447,35.51407 l 12.23515,35.75554 3.55151,1.60063 c 1.95332,0.88035 3.93507,1.61992 4.40387,1.6435 0.46881,0.0235 4.31682,-7.55506 8.55116,-16.84141 4.23433,-9.28635 8.01844,-17.18928 8.40913,-17.56206 0.39068,-0.37279 0.98266,-0.42759 1.31549,-0.12179 0.33283,0.30581 0.78276,15.792 0.99983,34.41378 l 0.39466,33.85777 4.34133,1.23222 c 2.38772,0.67771 4.66165,1.26426 5.05314,1.30342 0.42012,0.042 0.53502,-17.97949 0.28037,-43.97745 z"
       style="display:inline;fill:#808080;fill-opacity:1;stroke:#000000;stroke-width:1.89652681;stroke-miterlimit:4;stroke-dasharray:none;stroke-opacity:1" />
    <path
       inkscape:connector-curvature="0"
       id="path5203"
       d="m 27.758647,281.15193 c 0.09135,-18.47303 0.398819,-45.09738 0.683314,-59.16524 l 0.517246,-25.57793 63.384681,-36.33082 c 34.861582,-19.98196 63.901022,-36.51311 64.532102,-36.73591 1.72831,-0.61017 1.90562,0.73354 1.29918,9.84526 -0.30571,4.59325 -0.77737,36.6189 -1.04815,71.16811 -0.27077,34.54922 -0.70905,68.10904 -0.97398,74.57735 l -0.48168,11.76062 -6.8128,1.45932 c -7.77558,1.66556 -119.419012,22.58575 -120.534492,22.58623 -0.440954,1.9e-4 -0.665529,-13.34015 -0.565421,-33.58699 z m 61.401865,13.37664 7.103984,-1.24183 0.480776,-36.65896 c 0.264426,-20.16244 0.536307,-42.05104 0.604165,-48.64134 l 0.1234,-11.9824 23.697173,-11.25617 c 17.06493,-8.10586 23.80876,-11.66268 24.09589,-12.70861 0.21931,-0.79881 0.29488,-4.61707 0.16798,-8.48498 l -0.23077,-7.03259 -49.530609,25.52983 -49.530608,25.52981 0,6.4296 0,6.42961 17.096339,-8.14002 17.096338,-8.14002 -0.563781,45.84838 c -0.539993,43.91445 -0.503682,45.84656 0.860969,45.80494 0.78362,-0.024 4.621551,-0.60227 8.528754,-1.28525 z"
       style="display:inline;fill:#b3b3b3;fill-opacity:1;stroke:#120505;stroke-width:1.89652681;stroke-miterlimit:4;stroke-dasharray:none;stroke-opacity:1" />
    <rect
       ry="0.97445184"
       style="display:inline;opacity:0.52999998;fill:url(#linearGradient4271);fill-opacity:1;stroke:none;stroke-width:1.84270859;stroke-miterlimit:4;stroke-dasharray:none;stroke-opacity:1"
       id="rect5197"
       width="164.6004"
       height="140.01558"
       x="-11.313702"
       y="-349.78806"
       transform="matrix(-0.01154455,0.99993336,-0.76148977,-0.64817693,0,0)"
       inkscape:transform-center-x="-36.788192"
       inkscape:transform-center-y="35.382924" />
    <path
       sodipodi:nodetypes="cccccc"
       inkscape:connector-curvature="0"
       id="path5436"
       d="m 157.50074,123.43951 -3.43677,151.24327 6.46142,10.80545 -133.240241,27.14958 2.345044,-117.30764 z"
       style="display:inline;opacity:0.52300002;fill:url(#linearGradient4263);fill-opacity:1;fill-rule:evenodd;stroke:none;stroke-width:3.5;stroke-linecap:butt;stroke-linejoin:miter;stroke-miterlimit:4;stroke-dasharray:none;stroke-opacity:1" />
    <path
       sodipodi:nodetypes="cccccccccc"
       inkscape:connector-curvature="0"
       id="path4255"
       d="m 159.48121,121.83093 18.96524,41.15414 113.85316,76.11361 -24.94767,-45.44874 z m -3.30864,0.72477 -19.41263,41.14079 L 6.2740731,222.3288 35.107423,181.91295 Z"
       style="display:inline;fill:#999999;fill-rule:evenodd;stroke:#000000;stroke-width:0.94826341px;stroke-linecap:butt;stroke-linejoin:miter;stroke-opacity:1" />
  </g>
  <g
     style="display:inline"
     id="layer1"
     inkscape:groupmode="layer"
     inkscape:label="Layer 1"
     transform="translate(-2.923371,22.053282)">
    <flowRoot
       style="font-style:normal;font-variant:normal;font-weight:normal;font-stretch:normal;font-size:12.5px;line-height:125%;font-family:sans-serif;-inkscape-font-specification:'sans-serif, Normal';text-align:start;letter-spacing:0px;word-spacing:0px;writing-mode:lr-tb;text-anchor:start;fill:#000000;fill-opacity:1;stroke:none;stroke-width:1px;stroke-linecap:butt;stroke-linejoin:miter;stroke-opacity:1"
       id="flowRoot3402"
       xml:space="preserve"><flowRegion
         id="flowRegion3404"><rect
           y="471.09467"
           x="324.98984"
           height="544.12585"
           width="68.712135"
           id="rect3406" /></flowRegion><flowPara
         id="flowPara3408" /></flowRoot>    <flowRoot
       style="font-style:normal;font-variant:normal;font-weight:normal;font-stretch:normal;font-size:12.5px;line-height:125%;font-family:sans-serif;-inkscape-font-specification:'sans-serif, Normal';text-align:start;letter-spacing:0px;word-spacing:0px;writing-mode:lr-tb;text-anchor:start;fill:#000000;fill-opacity:1;stroke:none;stroke-width:1px;stroke-linecap:butt;stroke-linejoin:miter;stroke-opacity:1"
       id="flowRoot3410"
       xml:space="preserve"><flowRegion
         id="flowRegion3412"><rect
           y="439.52423"
           x="376.98819"
           height="72.426308"
           width="248.84935"
           id="rect3414" /></flowRegion><flowPara
         id="flowPara3416" /></flowRoot>    <flowRoot
       style="font-style:normal;font-variant:normal;font-weight:normal;font-stretch:normal;font-size:12.5px;line-height:125%;font-family:sans-serif;-inkscape-font-specification:'sans-serif, Normal';text-align:start;letter-spacing:0px;word-spacing:0px;writing-mode:lr-tb;text-anchor:start;fill:#000000;fill-opacity:1;stroke:none;stroke-width:1px;stroke-linecap:butt;stroke-linejoin:miter;stroke-opacity:1"
       id="flowRoot4516"
       xml:space="preserve"><flowRegion
         id="flowRegion4518"><rect
           y="529.06775"
           x="131.98293"
           height="141.2574"
           width="99.878967"
           id="rect4520" /></flowRegion><flowPara
         id="flowPara4522" /></flowRoot>  </g>
  <g
     style="display:inline"
     inkscape:label="shine"
     id="layer3"
     inkscape:groupmode="layer"
     transform="translate(-2.923371,22.053282)" />
</svg>
